<svg width="30" height="25" viewBox="0 0 30 25" fill="none" xmlns="http://www.w3.org/2000/svg">
<path d="M16.2719 22.2847H13.7298C13.6166 22.2847 13.5079 22.2406 13.4278 22.1623C13.3477 22.0839 13.3027 21.9777 13.3027 21.8669V1.68709C13.3027 1.24651 13.4816 0.823973 13.8001 0.512436C14.1186 0.200899 14.5505 0.0258789 15.0009 0.0258789C15.4512 0.0258789 15.8832 0.200899 16.2016 0.512436C16.5201 0.823973 16.699 1.24651 16.699 1.68709V21.8673C16.6989 21.978 16.6538 22.0842 16.5737 22.1624C16.4937 22.2407 16.3851 22.2847 16.2719 22.2847ZM14.1569 21.449H15.8448V1.68709C15.8448 1.46813 15.7559 1.25814 15.5976 1.10331C15.4393 0.948479 15.2247 0.861497 15.0009 0.861497C14.777 0.861497 14.5624 0.948479 14.4041 1.10331C14.2458 1.25814 14.1569 1.46813 14.1569 1.68709V21.449Z" fill="#D0A144"/>
<path d="M4.70731 5.62696H3.2411C2.89323 5.62085 2.56171 5.48138 2.31791 5.23856C2.0741 4.99574 1.9375 4.66898 1.9375 4.32862C1.9375 3.98825 2.0741 3.6615 2.31791 3.41867C2.56171 3.17585 2.89323 3.03638 3.2411 3.03027H4.49932C4.61259 3.03027 4.72122 3.07429 4.80132 3.15265C4.88141 3.231 4.92641 3.33727 4.92641 3.44808C4.92641 3.55889 4.88141 3.66516 4.80132 3.74352C4.72122 3.82187 4.61259 3.86589 4.49932 3.86589H3.2411C3.11811 3.86951 3.0014 3.91984 2.91571 4.00623C2.83002 4.09261 2.78209 4.20825 2.78209 4.32862C2.78209 4.44899 2.83002 4.56462 2.91571 4.651C3.0014 4.73739 3.11811 4.78772 3.2411 4.79134H4.70731C4.82058 4.79134 4.92922 4.83536 5.00931 4.91371C5.08941 4.99207 5.13441 5.09834 5.13441 5.20915C5.13441 5.31996 5.08941 5.42623 5.00931 5.50459C4.92922 5.58294 4.82058 5.62696 4.70731 5.62696Z" fill="#D0A144"/>
<path d="M13.7308 5.62696H7.29233C7.17906 5.62696 7.07042 5.58294 6.99033 5.50459C6.91023 5.42623 6.86523 5.31996 6.86523 5.20915C6.86523 5.09834 6.91023 4.99207 6.99033 4.91371C7.07042 4.83536 7.17906 4.79134 7.29233 4.79134H13.3037V3.86589H7.4999C7.38662 3.86589 7.27799 3.82187 7.1979 3.74352C7.1178 3.66516 7.0728 3.55889 7.0728 3.44808C7.0728 3.33727 7.1178 3.231 7.1979 3.15265C7.27799 3.07429 7.38662 3.03027 7.4999 3.03027H13.7308C13.844 3.03027 13.9527 3.07429 14.0328 3.15265C14.1129 3.231 14.1579 3.33727 14.1579 3.44808V5.20915C14.1579 5.31996 14.1129 5.42623 14.0328 5.50459C13.9527 5.58294 13.844 5.62696 13.7308 5.62696Z" fill="#D0A144"/>
<path d="M22.6181 5.62696H16.2728C16.1595 5.62696 16.0509 5.58294 15.9708 5.50459C15.8907 5.42623 15.8457 5.31996 15.8457 5.20915V3.44808C15.8457 3.33727 15.8907 3.231 15.9708 3.15265C16.0509 3.07429 16.1595 3.03027 16.2728 3.03027H22.4106C22.5238 3.03027 22.6325 3.07429 22.7126 3.15265C22.7927 3.231 22.8377 3.33727 22.8377 3.44808C22.8377 3.55889 22.7927 3.66516 22.7126 3.74352C22.6325 3.82187 22.5238 3.86589 22.4106 3.86589H16.6999V4.79134H22.6181C22.7314 4.79134 22.84 4.83536 22.9201 4.91371C23.0002 4.99207 23.0452 5.09834 23.0452 5.20915C23.0452 5.31996 23.0002 5.42623 22.9201 5.50459C22.84 5.58294 22.7314 5.62696 22.6181 5.62696Z" fill="#D0A144"/>
<path d="M26.7562 5.62696H25.2943C25.181 5.62696 25.0724 5.58294 24.9923 5.50459C24.9122 5.42623 24.8672 5.31996 24.8672 5.20915C24.8672 5.09834 24.9122 4.99207 24.9923 4.91371C25.0724 4.83536 25.181 4.79134 25.2943 4.79134H26.7562C26.8792 4.78772 26.9959 4.73739 27.0816 4.651C27.1673 4.56462 27.2152 4.44899 27.2152 4.32862C27.2152 4.20825 27.1673 4.09261 27.0816 4.00623C26.9959 3.91984 26.8792 3.86951 26.7562 3.86589H25.5048C25.3916 3.86589 25.2829 3.82187 25.2028 3.74352C25.1227 3.66516 25.0777 3.55889 25.0777 3.44808C25.0777 3.33727 25.1227 3.231 25.2028 3.15265C25.2829 3.07429 25.3916 3.03027 25.5048 3.03027H26.7562C27.1041 3.03638 27.4356 3.17585 27.6794 3.41867C27.9232 3.6615 28.0598 3.98825 28.0598 4.32862C28.0598 4.66898 27.9232 4.99574 27.6794 5.23856C27.4356 5.48138 27.1041 5.62085 26.7562 5.62696Z" fill="#D0A144"/>
<path d="M20.4112 24.9735H9.59288C9.52806 24.9735 9.46409 24.959 9.40582 24.9312C9.34756 24.9034 9.29653 24.863 9.25661 24.813C9.21669 24.763 9.18892 24.7048 9.1754 24.6428C9.16188 24.5808 9.16298 24.5165 9.1786 24.455C9.35471 23.6287 9.8082 22.8838 10.467 22.3387C11.1257 21.7936 11.9519 21.4796 12.814 21.4468H17.19C18.0522 21.4796 18.8784 21.7936 19.5371 22.3387C20.1959 22.8838 20.6494 23.6287 20.8255 24.455C20.8411 24.5165 20.8422 24.5808 20.8287 24.6428C20.8151 24.7048 20.7874 24.763 20.7474 24.813C20.7075 24.863 20.6565 24.9034 20.5982 24.9312C20.54 24.959 20.476 24.9735 20.4112 24.9735ZM10.1836 24.1379H19.8205C19.6172 23.61 19.2591 23.1525 18.7912 22.8228C18.3233 22.4931 17.7663 22.3058 17.19 22.2845H12.814C12.2378 22.3058 11.6808 22.4931 11.2128 22.8228C10.7449 23.1525 10.3869 23.61 10.1836 24.1379Z" fill="#D0A144"/>
<path d="M21.5663 24.9738H8.43491C8.32163 24.9738 8.213 24.9298 8.1329 24.8514C8.05281 24.7731 8.00781 24.6668 8.00781 24.556C8.00781 24.4452 8.05281 24.3389 8.1329 24.2606C8.213 24.1822 8.32163 24.1382 8.43491 24.1382H21.5663C21.6796 24.1382 21.7882 24.1822 21.8683 24.2606C21.9484 24.3389 21.9934 24.4452 21.9934 24.556C21.9934 24.6668 21.9484 24.7731 21.8683 24.8514C21.7882 24.9298 21.6796 24.9738 21.5663 24.9738Z" fill="#D0A144"/>
<path d="M29.5225 16.103H18.486C18.4145 16.103 18.3441 16.0855 18.2814 16.0521C18.2186 16.0186 18.1654 15.9703 18.1267 15.9115C18.0879 15.8527 18.0649 15.7853 18.0597 15.7156C18.0545 15.6458 18.0673 15.5759 18.0969 15.5122L22.7864 5.4121C22.8095 5.362 22.8425 5.31684 22.8834 5.27922C22.9244 5.2416 22.9725 5.21225 23.0251 5.19287C23.0777 5.17348 23.1337 5.16443 23.1898 5.16624C23.246 5.16805 23.3012 5.18068 23.3524 5.20341C23.4035 5.22614 23.4496 5.25851 23.4879 5.29869C23.5263 5.33886 23.5561 5.38604 23.5758 5.43753C23.5955 5.48901 23.6046 5.54379 23.6026 5.59872C23.6006 5.65365 23.5875 5.70765 23.5641 5.75763L19.1488 15.2674H28.858L24.4465 5.75763C24.4234 5.70765 24.4105 5.65369 24.4086 5.59884C24.4068 5.54399 24.416 5.48932 24.4358 5.43795C24.4555 5.38658 24.4854 5.33952 24.5237 5.29946C24.5621 5.25939 24.6081 5.22711 24.6592 5.20445C24.7103 5.18179 24.7655 5.1692 24.8215 5.16739C24.8776 5.16558 24.9335 5.1746 24.986 5.19392C25.0385 5.21324 25.0866 5.24249 25.1276 5.28C25.1685 5.3175 25.2015 5.36254 25.2247 5.41252L29.9095 15.5126C29.9389 15.5761 29.9516 15.6458 29.9465 15.7153C29.9414 15.7849 29.9185 15.852 29.88 15.9107C29.8416 15.9694 29.7887 16.0177 29.7263 16.0513C29.6638 16.0849 29.5938 16.1027 29.5225 16.103Z" fill="#D0A144"/>
<path d="M24.0475 21.4324H23.9586C20.5389 21.4324 18.0566 19.0158 18.0566 15.6859C18.0566 15.5751 18.1016 15.4688 18.1817 15.3904C18.2618 15.3121 18.3705 15.2681 18.4837 15.2681H29.522C29.6352 15.2681 29.7439 15.3121 29.824 15.3904C29.9041 15.4688 29.9491 15.5751 29.9491 15.6859C29.9491 19.0179 27.4668 21.4324 24.0475 21.4324ZM18.9258 16.1037C19.1163 18.7702 21.1317 20.5968 23.9586 20.5968H24.0475C26.874 20.5968 28.8899 18.7702 29.0799 16.1037H18.9258Z" fill="#D0A144"/>
<path d="M24.0024 6.22313C23.5871 6.22322 23.1811 6.10281 22.8357 5.87716C22.4904 5.6515 22.2212 5.33072 22.0622 4.95539C21.9033 4.58006 21.8617 4.16705 21.9427 3.76858C22.0237 3.37012 22.2236 3.0041 22.5173 2.71682C22.811 2.42955 23.1851 2.23392 23.5924 2.15468C23.9997 2.07544 24.4219 2.11615 24.8056 2.27166C25.1893 2.42717 25.5172 2.6905 25.7478 3.02833C25.9785 3.36617 26.1016 3.76333 26.1015 4.1696C26.1008 4.71403 25.8795 5.23597 25.4859 5.62094C25.0924 6.0059 24.5589 6.22247 24.0024 6.22313ZM24.0024 2.95127C23.756 2.95119 23.5152 3.02257 23.3103 3.15639C23.1055 3.29022 22.9458 3.48046 22.8515 3.70308C22.7571 3.92569 22.7324 4.17067 22.7804 4.40703C22.8284 4.64339 22.947 4.86052 23.1211 5.03095C23.2953 5.20137 23.5172 5.31745 23.7588 5.36449C24.0004 5.41154 24.2508 5.38743 24.4784 5.29523C24.706 5.20303 24.9005 5.04688 25.0374 4.84651C25.1743 4.64615 25.2473 4.41058 25.2473 4.1696C25.247 3.84666 25.1157 3.53702 24.8823 3.30863C24.6489 3.08023 24.3325 2.95171 24.0024 2.95127Z" fill="#D0A144"/>
<path d="M11.5158 16.1032H0.47971C0.40825 16.1032 0.337937 16.0856 0.275212 16.0521C0.212487 16.0186 0.159354 15.9703 0.120682 15.9115C0.0820091 15.8527 0.0590324 15.7854 0.0538563 15.7157C0.0486803 15.6459 0.0614701 15.576 0.0910546 15.5124L4.7814 5.41231C4.82824 5.31136 4.91415 5.23275 5.02023 5.19377C5.12632 5.15479 5.24389 5.15863 5.34708 5.20445C5.45027 5.25027 5.53063 5.33431 5.57048 5.43809C5.61033 5.54187 5.6064 5.65689 5.55956 5.75784L1.14427 15.2676H10.8534L6.44194 5.75784C6.41741 5.70769 6.40335 5.65327 6.4006 5.59774C6.39784 5.54222 6.40644 5.48672 6.42589 5.43449C6.44533 5.38225 6.47524 5.33434 6.51385 5.29356C6.55247 5.25278 6.59901 5.21995 6.65076 5.19698C6.70251 5.17402 6.75842 5.16139 6.81523 5.15983C6.87203 5.15827 6.92858 5.16782 6.98156 5.18791C7.03454 5.20801 7.08289 5.23824 7.12378 5.27684C7.16467 5.31545 7.19727 5.36164 7.21968 5.41273L11.9049 15.5128C11.9344 15.5765 11.9471 15.6464 11.9419 15.7161C11.9366 15.7858 11.9136 15.8531 11.8749 15.9118C11.8362 15.9705 11.783 16.0188 11.7203 16.0523C11.6576 16.0857 11.5873 16.1032 11.5158 16.1032Z" fill="#D0A144"/>
<path d="M6.04315 21.4324H5.95432C2.535 21.4324 0.0527344 19.0179 0.0527344 15.6859C0.0527344 15.5751 0.0977316 15.4688 0.177827 15.3904C0.257923 15.3121 0.366556 15.2681 0.479828 15.2681H11.5181C11.6313 15.2681 11.74 15.3121 11.8201 15.3904C11.9002 15.4688 11.9452 15.5751 11.9452 15.6859C11.9452 19.0179 9.46289 21.4324 6.04315 21.4324ZM0.92187 16.1037C1.11193 18.7702 3.12781 20.5968 5.95432 20.5968H6.04315C8.87008 20.5968 10.8855 18.7702 11.076 16.1037H0.92187Z" fill="#D0A144"/>
<path d="M5.99803 6.22313C5.58275 6.22313 5.1768 6.10266 4.83152 5.87695C4.48623 5.65124 4.21712 5.33044 4.05822 4.9551C3.89932 4.57977 3.85776 4.16676 3.93881 3.76833C4.01986 3.36989 4.21987 3.00391 4.51355 2.71668C4.80722 2.42944 5.18137 2.23386 5.58868 2.15465C5.99599 2.07545 6.41816 2.11618 6.80181 2.2717C7.18545 2.42723 7.51333 2.69055 7.74399 3.02838C7.97464 3.3662 8.09771 3.76335 8.09762 4.1696C8.09695 4.7141 7.87551 5.2361 7.48189 5.62108C7.08828 6.00606 6.55463 6.22258 5.99803 6.22313ZM5.99803 2.95127C5.75171 2.95127 5.51093 3.02273 5.30612 3.1566C5.10132 3.29047 4.94169 3.48075 4.84743 3.70337C4.75317 3.92599 4.7285 4.17095 4.77656 4.40729C4.82461 4.64362 4.94322 4.86071 5.1174 5.03109C5.29157 5.20148 5.51348 5.31751 5.75507 5.36452C5.99665 5.41153 6.24706 5.38741 6.47463 5.29519C6.7022 5.20298 6.8967 5.04683 7.03355 4.84647C7.1704 4.64612 7.24344 4.41057 7.24344 4.1696C7.2431 3.84658 7.11178 3.53689 6.87829 3.30848C6.64481 3.08007 6.32823 2.9516 5.99803 2.95127Z" fill="#D0A144"/>
</svg>
