<svg width="72" height="72" viewBox="0 0 72 72" fill="none" xmlns="http://www.w3.org/2000/svg">
<rect width="72" height="72" rx="36" fill="white"/>
<g clip-path="url(#clip0_1082_1402)">
<path d="M37.2719 46.2847H34.7298C34.6166 46.2847 34.5079 46.2406 34.4278 46.1623C34.3477 46.0839 34.3027 45.9777 34.3027 45.8669V25.6871C34.3027 25.2465 34.4816 24.824 34.8001 24.5124C35.1186 24.2009 35.5505 24.0259 36.0009 24.0259C36.4512 24.0259 36.8832 24.2009 37.2016 24.5124C37.5201 24.824 37.699 25.2465 37.699 25.6871V45.8673C37.6989 45.978 37.6538 46.0842 37.5737 46.1624C37.4937 46.2407 37.3851 46.2847 37.2719 46.2847V46.2847ZM35.1569 45.449H36.8448V25.6871C36.8448 25.4681 36.7559 25.2581 36.5976 25.1033C36.4393 24.9485 36.2247 24.8615 36.0009 24.8615C35.777 24.8615 35.5624 24.9485 35.4041 25.1033C35.2458 25.2581 35.1569 25.4681 35.1569 25.6871V45.449Z" fill="#D0A144"/>
<path d="M25.7073 29.627H24.2411C23.8932 29.6209 23.5617 29.4814 23.3179 29.2386C23.0741 28.9957 22.9375 28.669 22.9375 28.3286C22.9375 27.9883 23.0741 27.6615 23.3179 27.4187C23.5617 27.1759 23.8932 27.0364 24.2411 27.0303H25.4993C25.6126 27.0303 25.7212 27.0743 25.8013 27.1526C25.8814 27.231 25.9264 27.3373 25.9264 27.4481C25.9264 27.5589 25.8814 27.6652 25.8013 27.7435C25.7212 27.8219 25.6126 27.8659 25.4993 27.8659H24.2411C24.1181 27.8695 24.0014 27.9198 23.9157 28.0062C23.83 28.0926 23.7821 28.2082 23.7821 28.3286C23.7821 28.449 23.83 28.5646 23.9157 28.651C24.0014 28.7374 24.1181 28.7877 24.2411 28.7913H25.7073C25.8206 28.7913 25.9292 28.8354 26.0093 28.9137C26.0894 28.9921 26.1344 29.0983 26.1344 29.2091C26.1344 29.32 26.0894 29.4262 26.0093 29.5046C25.9292 29.5829 25.8206 29.627 25.7073 29.627Z" fill="#D0A144"/>
<path d="M34.7308 29.627H28.2923C28.1791 29.627 28.0704 29.5829 27.9903 29.5046C27.9102 29.4262 27.8652 29.32 27.8652 29.2091C27.8652 29.0983 27.9102 28.9921 27.9903 28.9137C28.0704 28.8354 28.1791 28.7913 28.2923 28.7913H34.3037V27.8659H28.4999C28.3866 27.8659 28.278 27.8219 28.1979 27.7435C28.1178 27.6652 28.0728 27.5589 28.0728 27.4481C28.0728 27.3373 28.1178 27.231 28.1979 27.1526C28.278 27.0743 28.3866 27.0303 28.4999 27.0303H34.7308C34.844 27.0303 34.9527 27.0743 35.0328 27.1526C35.1129 27.231 35.1579 27.3373 35.1579 27.4481V29.2091C35.1579 29.32 35.1129 29.4262 35.0328 29.5046C34.9527 29.5829 34.844 29.627 34.7308 29.627Z" fill="#D0A144"/>
<path d="M43.6181 29.627H37.2728C37.1595 29.627 37.0509 29.5829 36.9708 29.5046C36.8907 29.4262 36.8457 29.32 36.8457 29.2091V27.4481C36.8457 27.3373 36.8907 27.231 36.9708 27.1526C37.0509 27.0743 37.1595 27.0303 37.2728 27.0303H43.4106C43.5238 27.0303 43.6325 27.0743 43.7126 27.1526C43.7927 27.231 43.8377 27.3373 43.8377 27.4481C43.8377 27.5589 43.7927 27.6652 43.7126 27.7435C43.6325 27.8219 43.5238 27.8659 43.4106 27.8659H37.6999V28.7913H43.6181C43.7314 28.7913 43.84 28.8354 43.9201 28.9137C44.0002 28.9921 44.0452 29.0983 44.0452 29.2091C44.0452 29.32 44.0002 29.4262 43.9201 29.5046C43.84 29.5829 43.7314 29.627 43.6181 29.627Z" fill="#D0A144"/>
<path d="M47.7562 29.627H46.2943C46.181 29.627 46.0724 29.5829 45.9923 29.5046C45.9122 29.4262 45.8672 29.32 45.8672 29.2091C45.8672 29.0983 45.9122 28.9921 45.9923 28.9137C46.0724 28.8354 46.181 28.7913 46.2943 28.7913H47.7562C47.8792 28.7877 47.9959 28.7374 48.0816 28.651C48.1673 28.5646 48.2152 28.449 48.2152 28.3286C48.2152 28.2082 48.1673 28.0926 48.0816 28.0062C47.9959 27.9198 47.8792 27.8695 47.7562 27.8659H46.5048C46.3916 27.8659 46.2829 27.8219 46.2028 27.7435C46.1227 27.6652 46.0777 27.5589 46.0777 27.4481C46.0777 27.3373 46.1227 27.231 46.2028 27.1526C46.2829 27.0743 46.3916 27.0303 46.5048 27.0303H47.7562C48.1041 27.0364 48.4356 27.1759 48.6794 27.4187C48.9232 27.6615 49.0598 27.9883 49.0598 28.3286C49.0598 28.669 48.9232 28.9957 48.6794 29.2386C48.4356 29.4814 48.1041 29.6209 47.7562 29.627Z" fill="#D0A144"/>
<path d="M41.4112 48.9735H30.5929C30.5281 48.9735 30.4641 48.959 30.4058 48.9312C30.3476 48.9034 30.2965 48.863 30.2566 48.813C30.2167 48.763 30.1889 48.7048 30.1754 48.6428C30.1619 48.5808 30.163 48.5165 30.1786 48.455C30.3547 47.6287 30.8082 46.8838 31.467 46.3387C32.1257 45.7936 32.9519 45.4796 33.814 45.4468H38.19C39.0522 45.4796 39.8784 45.7936 40.5371 46.3387C41.1959 46.8838 41.6494 47.6287 41.8255 48.455C41.8411 48.5165 41.8422 48.5808 41.8287 48.6428C41.8151 48.7048 41.7874 48.763 41.7474 48.813C41.7075 48.863 41.6565 48.9034 41.5982 48.9312C41.54 48.959 41.476 48.9735 41.4112 48.9735V48.9735ZM31.1836 48.1379H40.8205C40.6172 47.61 40.2591 47.1525 39.7912 46.8228C39.3233 46.4931 38.7663 46.3058 38.19 46.2845H33.814C33.2378 46.3058 32.6808 46.4931 32.2128 46.8228C31.7449 47.1525 31.3869 47.61 31.1836 48.1379Z" fill="#D0A144"/>
<path d="M42.5663 48.9738H29.4349C29.3216 48.9738 29.213 48.9298 29.1329 48.8514C29.0528 48.7731 29.0078 48.6668 29.0078 48.556C29.0078 48.4452 29.0528 48.3389 29.1329 48.2606C29.213 48.1822 29.3216 48.1382 29.4349 48.1382H42.5663C42.6796 48.1382 42.7882 48.1822 42.8683 48.2606C42.9484 48.3389 42.9934 48.4452 42.9934 48.556C42.9934 48.6668 42.9484 48.7731 42.8683 48.8514C42.7882 48.9298 42.6796 48.9738 42.5663 48.9738Z" fill="#D0A144"/>
<path d="M50.5225 40.103H39.486C39.4145 40.103 39.3441 40.0855 39.2814 40.0521C39.2186 40.0186 39.1654 39.9703 39.1267 39.9115C39.0879 39.8527 39.0649 39.7853 39.0597 39.7156C39.0545 39.6458 39.0673 39.5759 39.0969 39.5122L43.7864 29.4121C43.8095 29.362 43.8425 29.3168 43.8834 29.2792C43.9244 29.2416 43.9725 29.2123 44.0251 29.1929C44.0777 29.1735 44.1337 29.1644 44.1898 29.1662C44.246 29.1681 44.3012 29.1807 44.3524 29.2034C44.4035 29.2261 44.4496 29.2585 44.4879 29.2987C44.5263 29.3389 44.5561 29.386 44.5758 29.4375C44.5955 29.489 44.6046 29.5438 44.6026 29.5987C44.6006 29.6536 44.5875 29.7076 44.5641 29.7576L40.1488 39.2674H49.858L45.4465 29.7576C45.4234 29.7076 45.4105 29.6537 45.4086 29.5988C45.4068 29.544 45.416 29.4893 45.4358 29.4379C45.4555 29.3866 45.4854 29.3395 45.5237 29.2995C45.5621 29.2594 45.6081 29.2271 45.6592 29.2045C45.7103 29.1818 45.7655 29.1692 45.8215 29.1674C45.8776 29.1656 45.9335 29.1746 45.986 29.1939C46.0385 29.2132 46.0866 29.2425 46.1276 29.28C46.1685 29.3175 46.2015 29.3625 46.2247 29.4125L50.9095 39.5126C50.9389 39.5761 50.9516 39.6458 50.9465 39.7153C50.9414 39.7849 50.9185 39.852 50.88 39.9107C50.8416 39.9694 50.7887 40.0177 50.7263 40.0513C50.6638 40.0849 50.5938 40.1027 50.5225 40.103V40.103Z" fill="#D0A144"/>
<path d="M45.0475 45.4324H44.9586C41.5389 45.4324 39.0566 43.0158 39.0566 39.6859C39.0566 39.5751 39.1016 39.4688 39.1817 39.3904C39.2618 39.3121 39.3705 39.2681 39.4837 39.2681H50.522C50.6352 39.2681 50.7439 39.3121 50.824 39.3904C50.9041 39.4688 50.9491 39.5751 50.9491 39.6859C50.9491 43.0179 48.4668 45.4324 45.0475 45.4324ZM39.9258 40.1037C40.1163 42.7702 42.1317 44.5968 44.9586 44.5968H45.0475C47.874 44.5968 49.8899 42.7702 50.0799 40.1037H39.9258Z" fill="#D0A144"/>
<path d="M45.0024 30.2231C44.5871 30.2232 44.1811 30.1028 43.8357 29.8772C43.4904 29.6515 43.2212 29.3307 43.0622 28.9554C42.9033 28.5801 42.8617 28.167 42.9427 27.7686C43.0237 27.3701 43.2236 27.0041 43.5173 26.7168C43.811 26.4295 44.1851 26.2339 44.5924 26.1547C44.9997 26.0754 45.4219 26.1162 45.8056 26.2717C46.1893 26.4272 46.5172 26.6905 46.7478 27.0283C46.9785 27.3662 47.1016 27.7633 47.1015 28.1696C47.1008 28.714 46.8795 29.236 46.4859 29.6209C46.0924 30.0059 45.5589 30.2225 45.0024 30.2231V30.2231ZM45.0024 26.9513C44.756 26.9512 44.5152 27.0226 44.3103 27.1564C44.1055 27.2902 43.9458 27.4805 43.8515 27.7031C43.7571 27.9257 43.7324 28.1707 43.7804 28.407C43.8284 28.6434 43.947 28.8605 44.1211 29.0309C44.2953 29.2014 44.5172 29.3175 44.7588 29.3645C45.0004 29.4115 45.2508 29.3874 45.4784 29.2952C45.706 29.203 45.9005 29.0469 46.0374 28.8465C46.1743 28.6462 46.2473 28.4106 46.2473 28.1696C46.247 27.8467 46.1157 27.537 45.8823 27.3086C45.6489 27.0802 45.3325 26.9517 45.0024 26.9513Z" fill="#D0A144"/>
<path d="M32.5158 40.1032H21.4797C21.4082 40.1032 21.3379 40.0856 21.2752 40.0521C21.2125 40.0186 21.1594 39.9703 21.1207 39.9115C21.082 39.8527 21.059 39.7854 21.0539 39.7157C21.0487 39.6459 21.0615 39.5761 21.0911 39.5124L25.7814 29.4123C25.8282 29.3114 25.9141 29.2328 26.0202 29.1938C26.1263 29.1548 26.2439 29.1586 26.3471 29.2044C26.4503 29.2503 26.5306 29.3343 26.5705 29.4381C26.6103 29.5419 26.6064 29.6569 26.5596 29.7578L22.1443 39.2676H31.8534L27.4419 29.7578C27.4174 29.7077 27.4034 29.6533 27.4006 29.5977C27.3978 29.5422 27.4064 29.4867 27.4259 29.4345C27.4453 29.3823 27.4752 29.3343 27.5139 29.2936C27.5525 29.2528 27.599 29.2199 27.6508 29.197C27.7025 29.174 27.7584 29.1614 27.8152 29.1598C27.872 29.1583 27.9286 29.1678 27.9816 29.1879C28.0345 29.208 28.0829 29.2382 28.1238 29.2768C28.1647 29.3154 28.1973 29.3616 28.2197 29.4127L32.9049 39.5128C32.9344 39.5765 32.9471 39.6464 32.9419 39.7161C32.9366 39.7858 32.9136 39.853 32.8749 39.9118C32.8362 39.9705 32.783 40.0188 32.7203 40.0523C32.6576 40.0857 32.5873 40.1032 32.5158 40.1032V40.1032Z" fill="#D0A144"/>
<path d="M27.0432 45.4324H26.9543C23.535 45.4324 21.0527 43.0179 21.0527 39.6859C21.0527 39.5751 21.0977 39.4688 21.1778 39.3904C21.2579 39.3121 21.3666 39.2681 21.4798 39.2681H32.5181C32.6313 39.2681 32.74 39.3121 32.8201 39.3904C32.9002 39.4688 32.9452 39.5751 32.9452 39.6859C32.9452 43.0179 30.4629 45.4324 27.0432 45.4324V45.4324ZM21.9219 40.1037C22.1119 42.7702 24.1278 44.5968 26.9543 44.5968H27.0432C29.8701 44.5968 31.8855 42.7702 32.076 40.1037H21.9219Z" fill="#D0A144"/>
<path d="M26.998 30.2231C26.5828 30.2231 26.1768 30.1027 25.8315 29.877C25.4862 29.6512 25.2171 29.3304 25.0582 28.9551C24.8993 28.5798 24.8578 28.1668 24.9388 27.7683C25.0199 27.3699 25.2199 27.0039 25.5135 26.7167C25.8072 26.4294 26.1814 26.2339 26.5887 26.1547C26.996 26.0754 27.4182 26.1162 27.8018 26.2717C28.1854 26.4272 28.5133 26.6906 28.744 27.0284C28.9746 27.3662 29.0977 27.7634 29.0976 28.1696C29.0969 28.7141 28.8755 29.2361 28.4819 29.6211C28.0883 30.0061 27.5546 30.2226 26.998 30.2231V30.2231ZM26.998 26.9513C26.7517 26.9513 26.5109 27.0227 26.3061 27.1566C26.1013 27.2905 25.9417 27.4807 25.8474 27.7034C25.7532 27.926 25.7285 28.171 25.7766 28.4073C25.8246 28.6436 25.9432 28.8607 26.1174 29.0311C26.2916 29.2015 26.5135 29.3175 26.7551 29.3645C26.9967 29.4115 27.2471 29.3874 27.4746 29.2952C27.7022 29.203 27.8967 29.0468 28.0335 28.8465C28.1704 28.6461 28.2434 28.4106 28.2434 28.1696C28.2431 27.8466 28.1118 27.5369 27.8783 27.3085C27.6448 27.0801 27.3282 26.9516 26.998 26.9513V26.9513Z" fill="#D0A144"/>
</g>
<defs>
<clipPath id="clip0_1082_1402">
<rect width="30" height="25" fill="white" transform="translate(21 24)"/>
</clipPath>
</defs>
</svg>
